<?xml version="1.0" encoding="UTF-8" standalone="no"?>
<!-- Created with Inkscape (http://www.inkscape.org/) -->

<svg
   width="50mm"
   height="100mm"
   viewBox="0 0 50 100"
   version="1.1"
   id="svg5"
   inkscape:version="1.2.1 (9c6d41e410, 2022-07-14)"
   sodipodi:docname="jablko.svg"
   xmlns:inkscape="http://www.inkscape.org/namespaces/inkscape"
   xmlns:sodipodi="http://sodipodi.sourceforge.net/DTD/sodipodi-0.dtd"
   xmlns="http://www.w3.org/2000/svg"
   xmlns:svg="http://www.w3.org/2000/svg">
  <sodipodi:namedview
     id="namedview7"
     pagecolor="#ffffff"
     bordercolor="#ffffff"
     borderopacity="0"
     inkscape:showpageshadow="2"
     inkscape:pageopacity="0"
     inkscape:pagecheckerboard="0"
     inkscape:deskcolor="#d1d1d1"
     inkscape:document-units="mm"
     showgrid="false"
     inkscape:zoom="2.0510461"
     inkscape:cx="118.96368"
     inkscape:cy="115.30701"
     inkscape:window-width="1920"
     inkscape:window-height="1001"
     inkscape:window-x="-9"
     inkscape:window-y="-9"
     inkscape:window-maximized="1"
     inkscape:current-layer="tyl_karty" />
  <defs
     id="defs2" />
  <g
     inkscape:groupmode="layer"
     id="przod_karty"
     inkscape:label="przod_karty"
     style="display:inline;fill:#00ff00"
     sodipodi:insensitive="true">
    <path
       id="rect6711"
       style="display:inline;fill:#10bd00;fill-opacity:1;stroke-width:0.264583"
       inkscape:label="przod_karty_tlo"
       d="M 4.7729707,0 H 45.278722 c 2.644226,0 4.772971,2.1287449 4.772971,4.7729707 V 95.459413 c 0,2.644226 -2.128745,4.772967 -4.772971,4.772967 H 4.7729707 C 2.1287449,100.23238 -1.3479799e-8,98.103639 -1.3479799e-8,95.459413 V 4.7729707 C -1.3479799e-8,2.1287449 2.1287449,0 4.7729707,0 Z" />
    <g
       id="g7494"
       inkscape:label="jablko">
      <ellipse
         style="display:inline;fill:#ff0000;fill-opacity:1;stroke-width:0.784475;stroke-dasharray:none"
         id="path6786"
         cx="25.090347"
         cy="52.051178"
         rx="15.544404"
         ry="13.09342"
         sodipodi:insensitive="true"
         inkscape:label="owoc" />
      <path
         style="display:inline;fill:#502d16;fill-opacity:1;stroke-width:0.665001;stroke-dasharray:none"
         d="M 23.993853,38.95776 C 25.154846,32.636801 34.05579,30.056814 34.05579,30.056814"
         id="path7055"
         sodipodi:insensitive="true"
         inkscape:label="galazka" />
      <path
         style="display:inline;fill:#44aa00;fill-opacity:1;stroke-width:0.665001;stroke-dasharray:none"
         d="m 30.830811,30.959811 c 0,0 -4.256974,0.902994 -6.062963,-1.547992 -1.805989,-2.450984 3.353979,-3.869976 4.772971,-0.902994"
         id="path7219"
         inkscape:label="lisc" />
    </g>
  </g>
  <g
     inkscape:label="tyl_karty"
     inkscape:groupmode="layer"
     id="tyl_karty"
     style="display:inline"
     sodipodi:insensitive="true">
    <path
       id="rect351"
       style="display:inline;fill:#0b8000;fill-opacity:1;stroke-width:0.264583"
       inkscape:label="tyl_karty_tlo"
       d="M 4.7729707,0 H 45.278722 c 2.644226,0 4.772971,2.1287449 4.772971,4.7729707 V 95.459413 c 0,2.644226 -2.128745,4.772967 -4.772971,4.772967 H 4.7729707 C 2.1287449,100.23238 -1.3479799e-8,98.103639 -1.3479799e-8,95.459413 V 4.7729707 C -1.3479799e-8,2.1287449 2.1287449,0 4.7729707,0 Z" />
    <g
       id="g825"
       inkscape:label="logo">
      <g
         id="g6656"
         inkscape:label="f">
        <path
           style="display:inline;fill:#aa0000;stroke-width:0.264583"
           id="path1747"
           d="m 18.269573,47.309989 c 0.0086,-0.695891 0.263966,-1.348766 0.605343,-1.944298 0.271649,-0.420024 0.49992,-0.459066 0.967989,-0.491885 0.539748,0.04247 1.077618,0.08114 1.614248,0.153281 0.659184,0.07408 1.307889,0.226952 1.959345,0.351113 0.658076,0.106598 1.287149,0.319159 1.916815,0.53077 0.394876,0.134276 0.769316,0.319212 1.157162,0.470456 0.32145,0.125351 0.100234,0.0163 0.370242,0.161941 1.226166,0.651068 2.87052,1.598461 -2.794697,-1.62496 -0.109727,-0.06243 0.204544,0.148079 0.304874,0.224708 0.290763,0.188947 0.540391,0.426934 0.798339,0.656312 0.186081,0.161777 0.363534,0.334089 0.532871,0.513276 0,0 3.645754,1.500079 3.645754,1.500079 v 0 C 29.157054,47.646685 28.986014,47.45995 28.811783,47.27858 28.5467,47.048906 28.307382,46.798079 28.030289,46.584232 27.926464,46.516713 27.836746,46.428347 27.730362,46.364935 26.463802,45.609978 25.15929,44.716808 23.776031,44.095058 23.275508,43.914747 22.788547,43.697202 22.280306,43.537544 21.63871,43.326666 20.992398,43.141542 20.322849,43.041247 19.661469,42.917996 19.0058,42.757754 18.334055,42.699789 c -0.562803,-0.06115 -1.133683,-0.134758 -1.699591,-0.08732 -0.53552,0.112543 -0.869078,0.322598 -1.132921,0.818211 -0.338677,0.662283 -0.571325,1.365985 -0.747318,2.088147 0,0 3.515348,1.79116 3.515348,1.79116 z" />
        <path
           style="display:inline;fill:#aa0000;stroke-width:0.264583"
           id="path1745"
           d="m 14.30316,58.972497 c 0.429532,-0.578789 0.72177,-1.246156 1.030509,-1.893012 0.560632,-1.17461 0.264224,-0.53408 0.822727,-1.778688 0.686067,-1.504135 1.208889,-3.080427 1.563362,-4.695311 0.07053,-0.321316 0.124259,-0.646092 0.186388,-0.969137 0.305659,-1.680758 0.487448,-3.379341 0.636268,-5.079974 0.01526,-0.879988 -0.05515,-1.778331 -0.284423,-2.631784 -0.130108,-0.484327 -0.457238,-1.37972 -0.621452,-1.844347 -0.118746,-0.336415 -0.433269,-1.220684 -0.554737,-1.588915 -0.154465,-0.46826 -0.330332,-0.954281 -0.285078,-1.454153 0.01331,-0.02702 0.0153,-0.06372 0.03993,-0.08106 0.0544,-0.0383 0.623541,0.130543 0.694262,0.146722 1.013009,0.259802 2.031176,0.492344 3.05989,0.680691 1.753374,0.243914 3.512415,0.437192 5.276477,0.58321 0.979988,0.07809 1.960058,0.160613 2.942596,0.198938 0.30571,0.01074 0.611637,0.009 0.917474,0.008 0,0 -3.201913,-2.323172 -3.201913,-2.323172 v 0 c -0.29246,0.0028 -0.584908,0.007 -0.87738,0.0087 -0.915833,0.0021 -1.831704,-0.02222 -2.745681,-0.08278 -1.779092,-0.136118 -3.551281,-0.346041 -5.308446,-0.659935 -1.072437,-0.223133 -2.131038,-0.498284 -3.189511,-0.778793 -0.484855,-0.08021 -0.907852,-0.0422 -1.08831,0.490771 -0.0064,0.08727 -0.02375,0.174424 -0.01925,0.261815 0.02547,0.494933 0.237383,0.976125 0.411902,1.429846 0.853706,2.219494 -0.316024,-0.861581 0.620195,1.612524 0.24414,0.70798 0.378389,1.045744 0.558866,1.760612 0.208775,0.826955 0.278981,1.678588 0.297027,2.528887 -0.04116,1.70715 -0.172483,3.414091 -0.501552,5.09247 -0.385319,1.915348 -0.849332,3.820668 -1.694596,5.593881 -0.574403,1.183894 -1.129275,2.440403 -2.049988,3.402301 0,0 3.364447,2.061734 3.364447,2.061734 z" />
      </g>
      <path
         style="display:inline;fill:#c50000;fill-opacity:1;stroke-width:0.665;stroke-dasharray:none"
         id="path1749"
         d="m 25.39831,70.779443 c 0.377203,-1.525931 0.935659,-2.999277 1.490656,-4.467428 0.659789,-1.83805 1.267677,-3.69306 1.776815,-5.578552 0.389379,-1.528503 0.562448,-3.105052 0.69438,-4.674169 0.06165,-0.822857 0.10237,-1.647788 0.121031,-2.472788 0.01632,-0.296198 -0.01849,-0.595672 0.01725,-0.890958 0.0047,-0.03856 0.03775,-0.149944 0.02199,-0.11444 -0.02818,0.0635 -0.03988,0.133107 -0.05981,0.19966 -5.402899,-2.880781 -3.887509,-2.778588 -3.206101,-1.563275 0.248118,0.442529 0.406884,0.918425 0.554177,1.401292 0.408141,1.295313 0.670695,2.627656 0.903444,3.963538 0.203949,1.365332 0.322331,2.7418 0.465037,4.114559 0.08115,0.652142 0.189053,1.303369 0.343691,1.942462 0.414874,1.873358 0.983895,1.176105 3.786526,2.709362 0.413099,-0.355216 0.64226,-0.862279 0.886682,-1.337852 0.411602,-0.863992 0.716296,-1.771481 1.099127,-2.648119 0.544899,-1.185789 1.029626,-2.397186 1.565886,-3.586753 0.48396,-1.083677 1.041837,-2.128324 1.606235,-3.17097 0.04651,-0.07914 0.08385,-0.164439 0.139526,-0.237419 0.02138,-0.02801 0.05813,-0.03984 0.0872,-0.05976 -1.152181,-0.565579 -2.300854,-1.138367 -3.456546,-1.696739 -0.04035,-0.0195 0.08595,0.04054 0.108627,0.07919 0.06126,0.104449 0.10854,0.429215 0.126439,0.526441 0.270757,1.411269 0.333291,2.852812 0.380995,4.285689 0.02732,1.897293 0.0258,3.794911 0.015,5.692325 0.01087,1.511121 -0.0026,3.022084 -0.05729,4.532281 -0.02429,0.596154 -0.0553,1.192234 -0.03762,1.788906 0.0043,0.441354 0.107754,0.86359 0.229486,1.284277 0.08114,0.274585 0.04073,0.139978 0.121087,0.403858 0,0 3.564459,1.656913 3.564459,1.656913 v 0 c -0.109988,-0.238948 -0.06115,-0.111427 -0.142227,-0.384178 -0.124177,-0.394938 -0.246785,-0.789646 -0.271696,-1.205666 -0.06272,-0.600798 -0.0154,-1.210921 -0.06713,-1.813338 -0.05179,-1.529347 -0.06478,-3.059332 -0.05395,-4.589499 -0.01357,-1.907501 -0.01871,-3.815157 -0.05776,-5.722382 -0.01212,-1.405623 0.03467,-2.81599 -0.127553,-4.215403 -0.02413,-0.190153 -0.05375,-0.815205 -0.06094,-0.819343 -3.12157,-1.794698 -3.126725,-3.030725 -3.799944,-1.414367 -0.473146,1.091634 -1.000207,2.159775 -1.499586,3.23945 -0.561856,1.177525 -1.078728,2.374722 -1.611593,3.565562 -0.0964,0.207168 -0.394981,0.844587 -0.48926,1.063514 -0.219437,0.509558 -0.409239,1.031062 -0.683884,1.515528 -0.13639,0.252359 -0.271127,0.500769 -0.442476,0.731657 -0.0177,0.02384 -0.139814,0.197731 -0.205111,0.208608 -0.02013,0.0034 -0.02753,-0.03013 -0.0413,-0.04519 1.108835,0.634453 2.223961,1.258033 3.326503,1.903355 0.03254,0.01905 -0.07572,-0.0082 -0.111059,-0.02135 -0.212992,-0.07907 -0.248885,-0.336735 -0.293055,-0.527442 -0.170979,-0.642604 -0.351255,-1.283949 -0.452527,-1.942978 -0.210016,-1.390663 -0.38553,-2.786092 -0.570876,-4.180263 -0.195574,-1.322168 -0.390424,-2.647246 -0.75043,-3.937135 -0.05687,-0.222507 -0.148441,-0.596657 -0.220609,-0.819063 -0.09722,-0.299598 -0.133567,-0.343336 -0.24584,-0.62267 -0.03284,-0.08171 -0.01913,-0.199716 -0.09332,-0.247158 -1.14949,-0.735084 -2.353998,-1.380363 -3.530996,-2.070545 -0.05452,0.07413 -0.123116,0.139724 -0.163549,0.222383 -0.02221,0.04539 -0.0139,0.100134 -0.01882,0.150429 -0.0303,0.309964 -0.0035,0.620987 -0.0039,0.931804 0.0209,0.836909 0.04226,1.674016 0.0087,2.511073 -0.07027,1.565259 -0.214475,3.126105 -0.584067,4.653328 -0.158489,0.645072 -0.274425,1.147556 -0.463153,1.7878 -0.374454,1.270304 -0.829733,2.51674 -1.290014,3.757718 -0.552899,1.457595 -1.075435,2.930517 -1.705593,4.356425 0,0 3.428604,1.897801 3.428604,1.897801 z"
         inkscape:label="m" />
    </g>
  </g>
</svg>
