<?xml version="1.0" encoding="UTF-8" standalone="no"?>
<!-- Uploaded to: SVG Repo, www.svgrepo.com, Generator: SVG Repo Mixer Tools -->

<svg
   version="1.1"
   id="Icons"
   viewBox="0 0 28 28"
   xml:space="preserve"
   sodipodi:docname="football.svg"
   width="28"
   height="28"
   inkscape:version="1.2.1 (9c6d41e410, 2022-07-14)"
   xmlns:inkscape="http://www.inkscape.org/namespaces/inkscape"
   xmlns:sodipodi="http://sodipodi.sourceforge.net/DTD/sodipodi-0.dtd"
   xmlns="http://www.w3.org/2000/svg"
   xmlns:svg="http://www.w3.org/2000/svg"><defs
   id="defs4198" /><sodipodi:namedview
   id="namedview4196"
   pagecolor="#ffffff"
   bordercolor="#000000"
   borderopacity="0"
   inkscape:showpageshadow="2"
   inkscape:pageopacity="0.0"
   inkscape:pagecheckerboard="true"
   inkscape:deskcolor="#d1d1d1"
   showgrid="false"
   inkscape:zoom="25.4375"
   inkscape:cx="16.019656"
   inkscape:cy="12.874693"
   inkscape:window-width="1920"
   inkscape:window-height="1001"
   inkscape:window-x="-9"
   inkscape:window-y="-9"
   inkscape:window-maximized="1"
   inkscape:current-layer="Icons" />
<style
   type="text/css"
   id="style4191">
	.st0{fill:none;stroke:#000000;stroke-width:2;stroke-linecap:round;stroke-linejoin:round;stroke-miterlimit:10;}
</style>

<g
   id="g4471"
   transform="translate(-0.15724816,-0.11793612)"><path
     d="m 25.613022,22.113022 c 1.6,-2.3 2.5,-5 2.5,-8 0,-2.7 -0.8,-5.1999999 -2.1,-7.2999999 0,-0.1 -0.1,-0.1 -0.1,-0.2 -2.5,-3.9 -6.8,-6.49999999 -11.8,-6.49999999 -4.9999999,0 -9.3999999,2.59999999 -11.7999999,6.59999999 0,0.1 -0.1,0.1 -0.1,0.2 -1.29999999,2.1 -1.99999999,4.5999999 -1.99999999,7.2999999 0,3 0.89999999,5.7 2.49999999,8 0,0 0.1,0.1 0.1,0.1 2.4,3.5 6.6,5.8 11.2999999,5.8 4.7,0 8.8,-2.3 11.4,-5.8 0,-0.1 0,-0.1 0.1,-0.2 z m -1.5,-1.5 -3.6,0.5 -1.4,-1.4 2,-5.8 3.1,-1.5 2,1.2 c 0,0.2 0,0.4 0,0.7 -0.1,2.2 -0.8,4.5 -2.1,6.3 z m -0.1,-13.1999999 -0.8,2.9999999 -3.2,1.6 -4.9,-3.3999999 v -3.9 l 3.4,-1.7 c 0,0 0,0 0,0 2.3,0.9 4.2,2.4 5.5,4.4 z m -14.3999999,-4.4 c 0,0 0,0 0,0 l 3.4999999,1.7 v 3.9 l -4.8999999,3.4999999 -3.3,-1.6 -0.8,-3.0999999 c 1.4,-2 3.3,-3.5 5.5,-4.4 z m -7.5,10.3999999 2,-1.2 3.1,1.6 2,5.8 -1.4,1.4 -3.7,-0.4 c -1.3,-1.9 -2,-4.1 -2,-6.5 0,-0.2 0,-0.5 0,-0.7 z m 8.8999999,12.3 c 0,0 0,0 0,0 l -1.6999999,-3.4 1.1999999,-1.2 h 7.2 l 1.2,1.2 -1.7,3.4 c 0,0 0,0 0,0 -1,0.3 -2,0.4 -3.1,0.4 -1.1,0 -2.1,-0.2 -3.1,-0.4 z"
     id="path4193" /><path
     style="fill:#ffffff;stroke:#ffffff;stroke-width:0.0589681;stroke-miterlimit:0"
     d="M 5.8087914,20.780226 C 4.8955185,20.67915 4.1317013,20.57945 4.1114198,20.558669 4.0031954,20.447778 3.5918562,19.737663 3.3247787,19.200651 2.789592,18.124554 2.4373038,17.00925 2.2565933,15.818896 2.1883408,15.369312 2.1698176,15.063799 2.166428,14.331752 l -0.00427,-0.921319 0.9742074,-0.585349 0.9742074,-0.585348 1.5421186,0.794909 1.5421187,0.794909 0.9962395,2.889196 0.9962398,2.889196 -0.6816775,0.682513 -0.6816778,0.682514 -0.1773252,-0.0045 c -0.097529,-0.0025 -0.9245488,-0.08718 -1.8378217,-0.18826 z"
     id="path4455" /><path
     style="fill:#ffffff;stroke:#ffffff;stroke-width:0.0589681;stroke-miterlimit:0"
     d="M 6.5847666,11.300609 C 5.7090909,10.871531 4.9788714,10.514871 4.9620565,10.508029 4.9347057,10.4969 4.1490757,7.5263705 4.1479014,7.4296436 4.1469045,7.3475231 4.8869449,6.441178 5.3434989,5.9653673 6.4148912,4.8487854 7.4438304,4.0942435 8.8444603,3.3980415 9.2332379,3.2047943 9.5693696,3.046683 9.5914194,3.046683 c 0.02205,0 0.8184556,0.3782408 1.7697906,0.8405349 l 1.729699,0.8405349 0.0102,1.9292361 0.0102,1.9292362 -2.451592,1.7511139 C 9.311341,11.300451 8.201101,12.086719 8.1925168,12.0846 8.1839368,12.0825 7.4604473,11.729686 6.5847716,11.300609 Z"
     id="path4457" /><path
     style="fill:#ffffff;stroke:#ffffff;stroke-width:0.0589681;stroke-miterlimit:0"
     d="M 17.542998,10.273738 15.115479,8.5839949 V 6.6604885 4.7369821 l 1.701949,-0.8507062 1.70195,-0.8507062 0.47004,0.2042222 c 1.877761,0.815845 3.570385,2.1728803 4.726441,3.7893513 l 0.275633,0.3854085 -0.133503,0.4991124 c -0.07343,0.2745116 -0.251488,0.9430093 -0.39569,1.4855497 l -0.262187,0.9864372 -1.585442,0.792433 c -0.871992,0.435838 -1.598651,0.790849 -1.614797,0.788914 -0.01615,-0.0019 -1.12174,-0.763902 -2.456875,-1.69326 z"
     id="path4459" /><path
     style="fill:#ffffff;stroke:#ffffff;stroke-width:0.0589681;stroke-miterlimit:0"
     d="m 19.828985,20.395201 -0.6919,-0.699869 0.989021,-2.860266 c 0.543961,-1.573147 1.005685,-2.876639 1.026052,-2.896649 0.02037,-0.02001 0.716991,-0.365186 1.548053,-0.767055 l 1.511022,-0.730672 1.000938,0.599125 1.000939,0.599124 -0.02416,0.610506 c -0.05608,1.416917 -0.353561,2.804118 -0.889661,4.148589 -0.246403,0.617946 -0.747301,1.550753 -1.087152,2.02457 l -0.126887,0.176905 -1.683901,0.23086 c -0.926146,0.126973 -1.728127,0.238475 -1.782181,0.247781 -0.0839,0.01444 -0.199521,-0.08549 -0.79018,-0.682949 z"
     id="path4461" /><path
     style="fill:#ffffff;stroke:#ffffff;stroke-width:0.0589681;stroke-miterlimit:0"
     d="m 13.267813,26.060051 c -0.684461,-0.07979 -1.937229,-0.284347 -2.173459,-0.354883 -0.0458,-0.01367 -0.362998,-0.606325 -0.910945,-1.701986 L 9.3427292,22.322177 9.9396389,21.726199 10.536549,21.130221 h 3.57741 3.57741 l 0.59607,0.599509 0.596071,0.599508 -0.852075,1.689858 -0.852074,1.689857 -0.353808,0.08828 c -0.743078,0.185414 -1.353284,0.252579 -2.417691,0.266111 -0.551351,0.007 -1.064373,0.0055 -1.140049,-0.0033 z"
     id="path4463" /></g></svg>
