<?xml version="1.0" encoding="UTF-8" standalone="no"?>
<!-- Created with Inkscape (http://www.inkscape.org/) -->

<svg
   width="265"
   height="450"
   viewBox="0 0 70.114601 119.0625"
   version="1.1"
   id="svg5"
   inkscape:version="1.2.1 (9c6d41e410, 2022-07-14)"
   sodipodi:docname="goal.svg"
   xmlns:inkscape="http://www.inkscape.org/namespaces/inkscape"
   xmlns:sodipodi="http://sodipodi.sourceforge.net/DTD/sodipodi-0.dtd"
   xmlns="http://www.w3.org/2000/svg"
   xmlns:svg="http://www.w3.org/2000/svg">
  <sodipodi:namedview
     id="namedview7"
     pagecolor="#ffffff"
     bordercolor="#000000"
     borderopacity="0"
     inkscape:showpageshadow="2"
     inkscape:pageopacity="0"
     inkscape:pagecheckerboard="false"
     inkscape:deskcolor="#d1d1d1"
     inkscape:document-units="px"
     showgrid="false"
     inkscape:zoom="2.9006173"
     inkscape:cx="163.24112"
     inkscape:cy="335.27346"
     inkscape:window-width="1920"
     inkscape:window-height="1001"
     inkscape:window-x="-9"
     inkscape:window-y="-9"
     inkscape:window-maximized="1"
     inkscape:current-layer="g1265" />
  <defs
     id="defs2" />
  <g
     inkscape:label="Warstwa 1"
     inkscape:groupmode="layer"
     id="layer1">
    <g
       id="g1265"
       inkscape:label="goal"
       transform="translate(-1.6221004,-48.71573)">
      <path
         id="rect4621-9-3"
         style="fill:#ffffff;stroke:#000000;stroke-width:0.208003;stroke-miterlimit:0"
         d="m 14.268614,63.836536 c 0.206011,0 0.37186,0.931772 0.37186,2.089175 v 99.958959 c 0,1.1574 -0.165849,2.08917 -0.37186,2.08917 -0.206011,0 -0.371861,-0.93177 -0.371861,-2.08917 V 65.925711 c 0,-1.157403 0.16585,-2.089175 0.371861,-2.089175 z" />
      <path
         id="rect4621-9-3-81"
         style="fill:#ffffff;stroke:#000000;stroke-width:0.207563;stroke-miterlimit:0"
         d="m 10.190937,64.281258 c 0.206132,0 0.37208,0.927286 0.37208,2.079118 V 165.8382 c 0,1.15183 -0.165948,2.07912 -0.37208,2.07912 -0.2061329,0 -0.3720808,-0.92729 -0.3720808,-2.07912 V 66.360376 c 0,-1.151832 0.1659479,-2.079118 0.3720808,-2.079118 z" />
      <path
         id="rect4621-9-3-5"
         style="fill:#ffffff;stroke:#000000;stroke-width:0.208839;stroke-miterlimit:0"
         d="m 18.75387,62.65247 c 0.205779,0 0.371442,0.940334 0.371442,2.108372 V 165.63835 c 0,1.16804 -0.165663,2.10837 -0.371442,2.10837 -0.205779,0 -0.371443,-0.94033 -0.371443,-2.10837 V 64.760842 c 0,-1.168038 0.165664,-2.108372 0.371443,-2.108372 z" />
      <path
         id="rect4621-9-3-1"
         style="fill:#ffffff;stroke:#000000;stroke-width:0.253057;stroke-miterlimit:0"
         d="m 28.334258,60.111359 c 0.294598,0 0.531766,0.964423 0.531766,2.162383 V 165.7355 c 0,1.19796 -0.237168,2.16238 -0.531766,2.16238 -0.294598,0 -0.531766,-0.96442 -0.531766,-2.16238 V 62.273742 c 0,-1.19796 0.237168,-2.162383 0.531766,-2.162383 z" />
      <path
         id="rect4621-9-3-4"
         style="fill:#ffffff;stroke:#000000;stroke-width:0.25477;stroke-miterlimit:0"
         d="m 34.407958,58.599316 c 0.294124,0 0.53091,0.979098 0.53091,2.195288 V 165.83072 c 0,1.21619 -0.236786,2.19529 -0.53091,2.19529 -0.294124,0 -0.53091,-0.9791 -0.53091,-2.19529 V 60.794604 c 0,-1.21619 0.236786,-2.195288 0.53091,-2.195288 z" />
      <path
         id="rect4621-9-3-8"
         style="fill:#ffffff;stroke:#000000;stroke-width:0.252146;stroke-miterlimit:0"
         d="m 23.528412,60.804192 c 0.294851,0 0.532221,0.956677 0.532221,2.145017 V 165.58006 c 0,1.18834 -0.23737,2.14501 -0.532221,2.14501 -0.29485,0 -0.532221,-0.95667 -0.532221,-2.14501 V 62.949209 c 0,-1.18834 0.237371,-2.145017 0.532221,-2.145017 z" />
      <path
         id="rect4621-9-3-42"
         style="fill:#ffffff;stroke:#000000;stroke-width:0.255902;stroke-miterlimit:0"
         d="m 40.3084,57.332031 c 0.29381,0 0.530343,0.988883 0.530343,2.217225 V 165.63496 c 0,1.22834 -0.236533,2.21722 -0.530343,2.21722 -0.29381,0 -0.530343,-0.98888 -0.530343,-2.21722 V 59.549256 c 0,-1.228342 0.236533,-2.217225 0.530343,-2.217225 z" />
      <path
         id="rect4621-9-3-19"
         style="fill:#ffffff;stroke:#000000;stroke-width:0.257682;stroke-miterlimit:0"
         d="m 46.853832,55.750938 c 0.293317,0 0.529453,1.004374 0.529453,2.251959 V 165.75047 c 0,1.24758 -0.236136,2.25196 -0.529453,2.25196 -0.293317,0 -0.529453,-1.00438 -0.529453,-2.25196 V 58.002897 c 0,-1.247585 0.236136,-2.251959 0.529453,-2.251959 z" />
      <path
         id="rect4621-9-3-19-7"
         style="fill:#ffffff;stroke:#000000;stroke-width:0.258705;stroke-miterlimit:0"
         d="m 51.986678,54.750141 c 0.293034,0 0.528942,1.013342 0.528942,2.272067 V 165.73191 c 0,1.25873 -0.235908,2.27207 -0.528942,2.27207 -0.293033,0 -0.528941,-1.01334 -0.528941,-2.27207 V 57.022208 c 0,-1.258725 0.235908,-2.272067 0.528941,-2.272067 z" />
      <path
         id="rect4621-9-3-19-2"
         style="fill:#ffffff;stroke:#000000;stroke-width:0.259861;stroke-miterlimit:0"
         d="m 57.533647,53.739513 c 0.292714,0 0.528364,1.023534 0.528364,2.294919 V 165.83749 c 0,1.27138 -0.23565,2.29491 -0.528364,2.29491 -0.292713,0 -0.528364,-1.02353 -0.528364,-2.29491 V 56.034432 c 0,-1.271385 0.235651,-2.294919 0.528364,-2.294919 z" />
      <path
         id="rect4621-9-3-19-1"
         style="fill:#ffffff;stroke:#000000;stroke-width:0.260551;stroke-miterlimit:0"
         d="m 62.564613,52.797741 c 0.292522,0 0.528019,1.029649 0.528019,2.308629 v 110.45906 c 0,1.27898 -0.235497,2.30863 -0.528019,2.30863 -0.292522,0 -0.528019,-1.02965 -0.528019,-2.30863 V 55.10637 c 0,-1.27898 0.235497,-2.308629 0.528019,-2.308629 z" />
      <path
         id="rect2033"
         style="fill:#ffffff;stroke:#000000;stroke-width:0.202573;stroke-miterlimit:0"
         d="m 5.55451,161.27204 h 61.368299 c 0.159722,0 0.288307,0.14441 0.288307,0.3238 0,0.17939 -0.128585,0.32379 -0.288307,0.32379 H 5.55451 c -0.1597224,0 -0.2883074,-0.1444 -0.2883074,-0.32379 0,-0.17939 0.128585,-0.3238 0.2883074,-0.3238 z" />
      <path
         id="rect2033-4"
         style="fill:#ffffff;stroke:#000000;stroke-width:0.202444;stroke-miterlimit:0"
         d="M 6.1925349,159.40202 H 67.470595 c 0.159487,0 0.287883,0.14444 0.287883,0.32387 0,0.17943 -0.128396,0.32386 -0.287883,0.32386 H 6.1925349 c -0.1594875,0 -0.2878835,-0.14443 -0.2878835,-0.32386 0,-0.17943 0.128396,-0.32387 0.2878835,-0.32387 z"
         inkscape:transform-center-x="1.8095537"
         inkscape:transform-center-y="2.4058781" />
      <path
         id="rect2033-8"
         style="fill:#ffffff;stroke:#000000;stroke-width:0.202702;stroke-miterlimit:0"
         d="M 6.1022953,157.4866 H 67.560834 c 0.159958,0 0.288732,0.14438 0.288732,0.32374 0,0.17936 -0.128774,0.32373 -0.288732,0.32373 H 6.1022953 c -0.1599572,0 -0.2887314,-0.14437 -0.2887314,-0.32373 0,-0.17936 0.1287742,-0.32374 0.2887314,-0.32374 z"
         inkscape:transform-center-y="1.1099638" />
      <path
         id="rect2033-3"
         style="fill:#ffffff;stroke:#000000;stroke-width:0.202186;stroke-miterlimit:0"
         d="M 6.1003417,155.20593 H 67.197922 c 0.159018,0 0.287036,0.14451 0.287036,0.324 0,0.17949 -0.128018,0.32399 -0.287036,0.32399 H 6.1003417 c -0.1590177,0 -0.2870355,-0.1445 -0.2870355,-0.32399 0,-0.17949 0.1280178,-0.324 0.2870355,-0.324 z" />
      <path
         id="rect2033-5"
         style="fill:#ffffff;stroke:#000000;stroke-width:0.202186;stroke-miterlimit:0"
         d="M 6.1003418,153.40443 H 67.197922 c 0.159018,0 0.287035,0.1445 0.287035,0.324 0,0.1795 -0.128017,0.32399 -0.287035,0.32399 H 6.1003418 c -0.1590177,0 -0.2870356,-0.14449 -0.2870356,-0.32399 0,-0.1795 0.1280179,-0.324 0.2870356,-0.324 z" />
      <path
         id="rect2033-4-0"
         style="fill:#ffffff;stroke:#000000;stroke-width:0.202573;stroke-miterlimit:0"
         d="M 6.1930231,151.53467 H 67.561322 c 0.159723,0 0.288307,0.14442 0.288307,0.32381 0,0.17939 -0.128584,0.3238 -0.288307,0.3238 H 6.1930231 c -0.1597223,0 -0.2883075,-0.14441 -0.2883075,-0.3238 0,-0.17939 0.1285852,-0.32381 0.2883075,-0.32381 z"
         inkscape:transform-center-x="1.8122186"
         inkscape:transform-center-y="2.4053996" />
      <path
         id="rect2033-8-7"
         style="fill:#ffffff;stroke:#000000;stroke-width:0.207008;stroke-miterlimit:0"
         d="m 5.024268,149.62134 h 64.526755 c 0.167943,0 0.303145,0.14343 0.303145,0.32159 0,0.17816 -0.135202,0.32158 -0.303145,0.32158 H 5.024268 c -0.1679429,0 -0.3031458,-0.14342 -0.3031458,-0.32158 0,-0.17816 0.1352029,-0.32159 0.3031458,-0.32159 z"
         inkscape:transform-center-y="1.1025815" />
      <path
         id="rect2033-3-3"
         style="fill:#ffffff;stroke:#000000;stroke-width:0.20411;stroke-miterlimit:0"
         d="M 5.7427977,147.33948 H 68.193978 c 0.162542,0 0.293395,0.14408 0.293395,0.32304 0,0.17896 -0.130853,0.32303 -0.293395,0.32303 H 5.7427977 c -0.1625407,0 -0.2933949,-0.14407 -0.2933949,-0.32303 0,-0.17896 0.1308542,-0.32304 0.2933949,-0.32304 z" />
      <path
         id="rect2033-36"
         style="fill:#ffffff;stroke:#000000;stroke-width:0.202573;stroke-miterlimit:0"
         d="M 5.4632939,144.93293 H 66.831593 c 0.159722,0 0.288307,0.14441 0.288307,0.3238 0,0.17939 -0.128585,0.32379 -0.288307,0.32379 H 5.4632939 c -0.159722,0 -0.288307,-0.1444 -0.288307,-0.32379 0,-0.17939 0.128585,-0.3238 0.288307,-0.3238 z" />
      <path
         id="rect2033-4-8"
         style="fill:#ffffff;stroke:#000000;stroke-width:0.202444;stroke-miterlimit:0"
         d="M 6.1013189,143.06291 H 67.379379 c 0.159487,0 0.287883,0.14444 0.287883,0.32387 0,0.17943 -0.128396,0.32386 -0.287883,0.32386 H 6.1013189 c -0.159488,0 -0.287884,-0.14443 -0.287884,-0.32386 0,-0.17943 0.128396,-0.32387 0.287884,-0.32387 z"
         inkscape:transform-center-x="1.8095537"
         inkscape:transform-center-y="2.4058781" />
      <path
         id="rect2033-8-5"
         style="fill:#ffffff;stroke:#000000;stroke-width:0.202702;stroke-miterlimit:0"
         d="M 6.0110789,141.14749 H 67.469618 c 0.159958,0 0.288732,0.14438 0.288732,0.32374 0,0.17936 -0.128774,0.32373 -0.288732,0.32373 H 6.0110789 c -0.159957,0 -0.288731,-0.14437 -0.288731,-0.32373 0,-0.17936 0.128774,-0.32374 0.288731,-0.32374 z"
         inkscape:transform-center-y="1.1099638" />
      <path
         id="rect2033-3-0"
         style="fill:#ffffff;stroke:#000000;stroke-width:0.202186;stroke-miterlimit:0"
         d="M 6.0091259,138.86682 H 67.106706 c 0.159018,0 0.287036,0.14451 0.287036,0.324 0,0.17949 -0.128018,0.32399 -0.287036,0.32399 H 6.0091259 c -0.159018,0 -0.287036,-0.1445 -0.287036,-0.32399 0,-0.17949 0.128018,-0.324 0.287036,-0.324 z" />
      <path
         id="rect2033-5-8"
         style="fill:#ffffff;stroke:#000000;stroke-width:0.202186;stroke-miterlimit:0"
         d="M 6.0091259,137.06532 H 67.106706 c 0.159018,0 0.287035,0.1445 0.287035,0.324 0,0.1795 -0.128017,0.32399 -0.287035,0.32399 H 6.0091259 c -0.159018,0 -0.287036,-0.14449 -0.287036,-0.32399 0,-0.1795 0.128018,-0.324 0.287036,-0.324 z" />
      <path
         id="rect2033-4-0-1"
         style="fill:#ffffff;stroke:#000000;stroke-width:0.202573;stroke-miterlimit:0"
         d="M 6.1018069,135.19556 H 67.470106 c 0.159723,0 0.288307,0.14442 0.288307,0.32381 0,0.17939 -0.128584,0.3238 -0.288307,0.3238 H 6.1018069 c -0.159722,0 -0.288307,-0.14441 -0.288307,-0.3238 0,-0.17939 0.128585,-0.32381 0.288307,-0.32381 z"
         inkscape:transform-center-x="1.8122186"
         inkscape:transform-center-y="2.4053996" />
      <path
         id="rect2033-8-7-6"
         style="fill:#ffffff;stroke:#000000;stroke-width:0.207008;stroke-miterlimit:0"
         d="M 4.9330519,133.28223 H 69.459807 c 0.167943,0 0.303145,0.14343 0.303145,0.32159 0,0.17816 -0.135202,0.32158 -0.303145,0.32158 H 4.9330519 c -0.167943,0 -0.303146,-0.14342 -0.303146,-0.32158 0,-0.17816 0.135203,-0.32159 0.303146,-0.32159 z"
         inkscape:transform-center-y="1.1025815" />
      <path
         id="rect2033-3-3-5"
         style="fill:#ffffff;stroke:#000000;stroke-width:0.20411;stroke-miterlimit:0"
         d="M 5.6515819,131.00037 H 68.102762 c 0.162542,0 0.293395,0.14408 0.293395,0.32304 0,0.17896 -0.130853,0.32303 -0.293395,0.32303 H 5.6515819 c -0.162541,0 -0.293395,-0.14407 -0.293395,-0.32303 0,-0.17896 0.130854,-0.32304 0.293395,-0.32304 z" />
      <path
         id="rect2033-0"
         style="fill:#ffffff;stroke:#000000;stroke-width:0.202573;stroke-miterlimit:0"
         d="M 5.8281591,128.78766 H 67.196458 c 0.159722,0 0.288307,0.14441 0.288307,0.3238 0,0.17939 -0.128585,0.32379 -0.288307,0.32379 H 5.8281591 c -0.1597224,0 -0.2883074,-0.1444 -0.2883074,-0.32379 0,-0.17939 0.128585,-0.3238 0.2883074,-0.3238 z" />
      <path
         id="rect2033-4-4"
         style="fill:#ffffff;stroke:#000000;stroke-width:0.202444;stroke-miterlimit:0"
         d="m 6.466184,126.91764 h 61.27806 c 0.159487,0 0.287883,0.14444 0.287883,0.32387 0,0.17943 -0.128396,0.32386 -0.287883,0.32386 H 6.466184 c -0.1594875,0 -0.2878835,-0.14443 -0.2878835,-0.32386 0,-0.17943 0.128396,-0.32387 0.2878835,-0.32387 z"
         inkscape:transform-center-x="1.8095537"
         inkscape:transform-center-y="2.4058781" />
      <path
         id="rect2033-8-9"
         style="fill:#ffffff;stroke:#000000;stroke-width:0.202702;stroke-miterlimit:0"
         d="M 6.3759444,125.00222 H 67.834483 c 0.159958,0 0.288732,0.14438 0.288732,0.32374 0,0.17936 -0.128774,0.32373 -0.288732,0.32373 H 6.3759444 c -0.1599572,0 -0.2887314,-0.14437 -0.2887314,-0.32373 0,-0.17936 0.1287742,-0.32374 0.2887314,-0.32374 z"
         inkscape:transform-center-y="1.1099638" />
      <path
         id="rect2033-3-7"
         style="fill:#ffffff;stroke:#000000;stroke-width:0.202186;stroke-miterlimit:0"
         d="M 6.3739908,122.72155 H 67.471571 c 0.159018,0 0.287036,0.14451 0.287036,0.324 0,0.17949 -0.128018,0.32399 -0.287036,0.32399 H 6.3739908 c -0.1590177,0 -0.2870355,-0.1445 -0.2870355,-0.32399 0,-0.17949 0.1280178,-0.324 0.2870355,-0.324 z" />
      <path
         id="rect2033-5-83"
         style="fill:#ffffff;stroke:#000000;stroke-width:0.202186;stroke-miterlimit:0"
         d="M 6.3739909,120.92005 H 67.471571 c 0.159018,0 0.287035,0.1445 0.287035,0.324 0,0.1795 -0.128017,0.32399 -0.287035,0.32399 H 6.3739909 c -0.1590177,0 -0.2870356,-0.14449 -0.2870356,-0.32399 0,-0.1795 0.1280179,-0.324 0.2870356,-0.324 z" />
      <path
         id="rect2033-4-0-2"
         style="fill:#ffffff;stroke:#000000;stroke-width:0.202573;stroke-miterlimit:0"
         d="M 6.4666722,119.05029 H 67.834971 c 0.159723,0 0.288307,0.14442 0.288307,0.32381 0,0.17939 -0.128584,0.3238 -0.288307,0.3238 H 6.4666722 c -0.1597223,0 -0.2883075,-0.14441 -0.2883075,-0.3238 0,-0.17939 0.1285852,-0.32381 0.2883075,-0.32381 z"
         inkscape:transform-center-x="1.8122186"
         inkscape:transform-center-y="2.4053996" />
      <path
         id="rect2033-8-7-0"
         style="fill:#ffffff;stroke:#000000;stroke-width:0.207008;stroke-miterlimit:0"
         d="M 5.2979171,117.13696 H 69.824672 c 0.167943,0 0.303145,0.14343 0.303145,0.32159 0,0.17816 -0.135202,0.32158 -0.303145,0.32158 H 5.2979171 c -0.1679429,0 -0.3031458,-0.14342 -0.3031458,-0.32158 0,-0.17816 0.1352029,-0.32159 0.3031458,-0.32159 z"
         inkscape:transform-center-y="1.1025815" />
      <path
         id="rect2033-3-3-3"
         style="fill:#ffffff;stroke:#000000;stroke-width:0.20411;stroke-miterlimit:0"
         d="M 6.0164468,114.8551 H 68.467627 c 0.162542,0 0.293395,0.14408 0.293395,0.32304 0,0.17896 -0.130853,0.32303 -0.293395,0.32303 H 6.0164468 c -0.1625407,0 -0.2933949,-0.14407 -0.2933949,-0.32303 0,-0.17896 0.1308542,-0.32304 0.2933949,-0.32304 z" />
      <path
         id="rect2033-7"
         style="fill:#ffffff;stroke:#000000;stroke-width:0.202573;stroke-miterlimit:0"
         d="M 5.7369428,112.82482 H 67.105242 c 0.159722,0 0.288307,0.14441 0.288307,0.3238 0,0.17939 -0.128585,0.32379 -0.288307,0.32379 H 5.7369428 c -0.1597224,0 -0.2883074,-0.1444 -0.2883074,-0.32379 0,-0.17939 0.128585,-0.3238 0.2883074,-0.3238 z" />
      <path
         id="rect2033-4-3"
         style="fill:#ffffff;stroke:#000000;stroke-width:0.202444;stroke-miterlimit:0"
         d="M 6.3749677,110.9548 H 67.653028 c 0.159487,0 0.287883,0.14444 0.287883,0.32387 0,0.17943 -0.128396,0.32386 -0.287883,0.32386 H 6.3749677 c -0.1594875,0 -0.2878835,-0.14443 -0.2878835,-0.32386 0,-0.17943 0.128396,-0.32387 0.2878835,-0.32387 z"
         inkscape:transform-center-x="1.8095537"
         inkscape:transform-center-y="2.4058781" />
      <path
         id="rect2033-8-74"
         style="fill:#ffffff;stroke:#000000;stroke-width:0.202702;stroke-miterlimit:0"
         d="M 6.2847281,109.03938 H 67.743267 c 0.159958,0 0.288732,0.14438 0.288732,0.32374 0,0.17936 -0.128774,0.32373 -0.288732,0.32373 H 6.2847281 c -0.1599572,0 -0.2887314,-0.14437 -0.2887314,-0.32373 0,-0.17936 0.1287742,-0.32374 0.2887314,-0.32374 z"
         inkscape:transform-center-y="1.1099638" />
      <path
         id="rect2033-3-70"
         style="fill:#ffffff;stroke:#000000;stroke-width:0.202186;stroke-miterlimit:0"
         d="M 6.2827745,106.75871 H 67.380355 c 0.159018,0 0.287036,0.14451 0.287036,0.324 0,0.17949 -0.128018,0.32399 -0.287036,0.32399 H 6.2827745 c -0.1590177,0 -0.2870355,-0.1445 -0.2870355,-0.32399 0,-0.17949 0.1280178,-0.324 0.2870355,-0.324 z" />
      <path
         id="rect2033-5-6"
         style="fill:#ffffff;stroke:#000000;stroke-width:0.202186;stroke-miterlimit:0"
         d="M 6.2827746,104.95721 H 67.380355 c 0.159018,0 0.287035,0.1445 0.287035,0.324 0,0.1795 -0.128017,0.32399 -0.287035,0.32399 H 6.2827746 c -0.1590177,0 -0.2870356,-0.14449 -0.2870356,-0.32399 0,-0.1795 0.1280179,-0.324 0.2870356,-0.324 z" />
      <path
         id="rect2033-4-0-5"
         style="fill:#ffffff;stroke:#000000;stroke-width:0.202573;stroke-miterlimit:0"
         d="M 6.3754559,103.08745 H 67.743755 c 0.159723,0 0.288307,0.14442 0.288307,0.32381 0,0.17939 -0.128584,0.3238 -0.288307,0.3238 H 6.3754559 c -0.1597223,0 -0.2883075,-0.14441 -0.2883075,-0.3238 0,-0.17939 0.1285852,-0.32381 0.2883075,-0.32381 z"
         inkscape:transform-center-x="1.8122186"
         inkscape:transform-center-y="2.4053996" />
      <path
         id="rect2033-8-7-2"
         style="fill:#ffffff;stroke:#000000;stroke-width:0.207008;stroke-miterlimit:0"
         d="M 5.2067008,101.17412 H 69.733456 c 0.167943,0 0.303145,0.14343 0.303145,0.32159 0,0.17816 -0.135202,0.32158 -0.303145,0.32158 H 5.2067008 c -0.1679429,0 -0.3031458,-0.14342 -0.3031458,-0.32158 0,-0.17816 0.1352029,-0.32159 0.3031458,-0.32159 z"
         inkscape:transform-center-y="1.1025815" />
      <path
         id="rect2033-3-3-1"
         style="fill:#ffffff;stroke:#000000;stroke-width:0.20411;stroke-miterlimit:0"
         d="M 5.9252305,98.892264 H 68.376411 c 0.162542,0 0.293395,0.14408 0.293395,0.32304 0,0.17896 -0.130853,0.32303 -0.293395,0.32303 H 5.9252305 c -0.1625407,0 -0.2933949,-0.14407 -0.2933949,-0.32303 0,-0.17896 0.1308542,-0.32304 0.2933949,-0.32304 z" />
      <path
         id="rect2033-9"
         style="fill:#ffffff;stroke:#000000;stroke-width:0.202573;stroke-miterlimit:0"
         d="M 6.1018078,96.679547 H 67.470107 c 0.159722,0 0.288307,0.14441 0.288307,0.3238 0,0.17939 -0.128585,0.32379 -0.288307,0.32379 H 6.1018078 c -0.1597224,0 -0.2883074,-0.1444 -0.2883074,-0.32379 0,-0.17939 0.128585,-0.3238 0.2883074,-0.3238 z" />
      <path
         id="rect2033-4-48"
         style="fill:#ffffff;stroke:#000000;stroke-width:0.202444;stroke-miterlimit:0"
         d="M 6.7398327,94.809527 H 68.017893 c 0.159486,0 0.287882,0.14444 0.287882,0.32387 0,0.17943 -0.128396,0.32386 -0.287882,0.32386 H 6.7398327 c -0.1594875,0 -0.2878835,-0.14443 -0.2878835,-0.32386 0,-0.17943 0.128396,-0.32387 0.2878835,-0.32387 z"
         inkscape:transform-center-x="1.8095537"
         inkscape:transform-center-y="2.4058781" />
      <path
         id="rect2033-8-6"
         style="fill:#ffffff;stroke:#000000;stroke-width:0.202702;stroke-miterlimit:0"
         d="M 6.6495931,92.894111 H 68.108131 c 0.159958,0 0.288732,0.14438 0.288732,0.323736 0,0.17936 -0.128774,0.32373 -0.288732,0.32373 H 6.6495931 c -0.1599572,0 -0.2887314,-0.14437 -0.2887314,-0.32373 0,-0.179356 0.1287742,-0.323736 0.2887314,-0.323736 z"
         inkscape:transform-center-y="1.1099638" />
      <path
         id="rect2033-3-9"
         style="fill:#ffffff;stroke:#000000;stroke-width:0.202186;stroke-miterlimit:0"
         d="M 6.6476395,90.613441 H 67.74522 c 0.159018,0 0.287036,0.14451 0.287036,0.324 0,0.17949 -0.128018,0.32399 -0.287036,0.32399 H 6.6476395 c -0.1590177,0 -0.2870355,-0.1445 -0.2870355,-0.32399 0,-0.17949 0.1280178,-0.324 0.2870355,-0.324 z" />
      <path
         id="rect2033-5-0"
         style="fill:#ffffff;stroke:#000000;stroke-width:0.202186;stroke-miterlimit:0"
         d="M 6.6476396,88.811941 H 67.74522 c 0.159018,0 0.287035,0.1445 0.287035,0.324 0,0.1795 -0.128017,0.32399 -0.287035,0.32399 H 6.6476396 c -0.1590177,0 -0.2870356,-0.14449 -0.2870356,-0.32399 0,-0.1795 0.1280179,-0.324 0.2870356,-0.324 z" />
      <path
         id="rect2033-4-0-3"
         style="fill:#ffffff;stroke:#000000;stroke-width:0.202573;stroke-miterlimit:0"
         d="M 6.7403209,86.942181 H 68.108619 c 0.159723,0 0.288308,0.14442 0.288308,0.32381 0,0.17939 -0.128585,0.3238 -0.288308,0.3238 H 6.7403209 c -0.1597223,0 -0.2883075,-0.14441 -0.2883075,-0.3238 0,-0.17939 0.1285852,-0.32381 0.2883075,-0.32381 z"
         inkscape:transform-center-x="1.8122186"
         inkscape:transform-center-y="2.4053996" />
      <path
         id="rect2033-8-7-4"
         style="fill:#ffffff;stroke:#000000;stroke-width:0.207008;stroke-miterlimit:0"
         d="M 5.5715658,85.028851 H 70.09832 c 0.167943,0 0.303145,0.14343 0.303145,0.32159 0,0.17816 -0.135202,0.32158 -0.303145,0.32158 H 5.5715658 c -0.1679429,0 -0.3031458,-0.14342 -0.3031458,-0.32158 0,-0.17816 0.1352029,-0.32159 0.3031458,-0.32159 z"
         inkscape:transform-center-y="1.1025815" />
      <path
         id="rect2033-3-3-6"
         style="fill:#ffffff;stroke:#000000;stroke-width:0.20411;stroke-miterlimit:0"
         d="M 6.2900955,82.746991 H 68.741275 c 0.162542,0 0.293395,0.14408 0.293395,0.32304 0,0.17896 -0.130853,0.32303 -0.293395,0.32303 H 6.2900955 c -0.1625407,0 -0.2933949,-0.14407 -0.2933949,-0.32303 0,-0.17896 0.1308542,-0.32304 0.2933949,-0.32304 z" />
      <path
         id="rect2033-1"
         style="fill:#ffffff;stroke:#000000;stroke-width:0.202573;stroke-miterlimit:0"
         d="M 5.8281594,80.443062 H 67.196458 c 0.159722,0 0.288307,0.14441 0.288307,0.3238 0,0.17939 -0.128585,0.32379 -0.288307,0.32379 H 5.8281594 c -0.159722,0 -0.288307,-0.1444 -0.288307,-0.32379 0,-0.17939 0.128585,-0.3238 0.288307,-0.3238 z" />
      <path
         id="rect2033-4-1"
         style="fill:#ffffff;stroke:#000000;stroke-width:0.202444;stroke-miterlimit:0"
         d="M 6.4661844,78.573042 H 67.744244 c 0.159487,0 0.287883,0.14444 0.287883,0.32387 0,0.17943 -0.128396,0.32386 -0.287883,0.32386 H 6.4661844 c -0.159488,0 -0.287884,-0.14443 -0.287884,-0.32386 0,-0.17943 0.128396,-0.32387 0.287884,-0.32387 z"
         inkscape:transform-center-x="1.8095537"
         inkscape:transform-center-y="2.4058781" />
      <path
         id="rect2033-8-51"
         style="fill:#ffffff;stroke:#000000;stroke-width:0.202702;stroke-miterlimit:0"
         d="M 6.3759444,76.657622 H 67.834483 c 0.159958,0 0.288732,0.14438 0.288732,0.32374 0,0.17936 -0.128774,0.32373 -0.288732,0.32373 H 6.3759444 c -0.159957,0 -0.288731,-0.14437 -0.288731,-0.32373 0,-0.17936 0.128774,-0.32374 0.288731,-0.32374 z"
         inkscape:transform-center-y="1.1099638" />
      <path
         id="rect2033-3-05"
         style="fill:#ffffff;stroke:#000000;stroke-width:0.202186;stroke-miterlimit:0"
         d="M 6.3739914,74.376952 H 67.471571 c 0.159018,0 0.287036,0.14451 0.287036,0.324 0,0.17949 -0.128018,0.32399 -0.287036,0.32399 H 6.3739914 c -0.159018,0 -0.287036,-0.1445 -0.287036,-0.32399 0,-0.17949 0.128018,-0.324 0.287036,-0.324 z" />
      <path
         id="rect2033-5-5"
         style="fill:#ffffff;stroke:#000000;stroke-width:0.202186;stroke-miterlimit:0"
         d="M 6.3739914,72.575452 H 67.471571 c 0.159018,0 0.287035,0.1445 0.287035,0.324 0,0.1795 -0.128017,0.32399 -0.287035,0.32399 H 6.3739914 c -0.159018,0 -0.287036,-0.14449 -0.287036,-0.32399 0,-0.1795 0.128018,-0.324 0.287036,-0.324 z" />
      <path
         id="rect2033-4-0-9"
         style="fill:#ffffff;stroke:#000000;stroke-width:0.202573;stroke-miterlimit:0"
         d="M 6.4666724,70.705692 H 67.834971 c 0.159723,0 0.288307,0.14442 0.288307,0.32381 0,0.17939 -0.128584,0.3238 -0.288307,0.3238 H 6.4666724 c -0.159722,0 -0.288307,-0.14441 -0.288307,-0.3238 0,-0.17939 0.128585,-0.32381 0.288307,-0.32381 z"
         inkscape:transform-center-x="1.8122186"
         inkscape:transform-center-y="2.4053996" />
      <path
         id="rect2033-8-7-64"
         style="fill:#ffffff;stroke:#000000;stroke-width:0.207008;stroke-miterlimit:0"
         d="M 5.2979174,68.792362 H 69.824672 c 0.167943,0 0.303145,0.14343 0.303145,0.32159 0,0.17816 -0.135202,0.32158 -0.303145,0.32158 H 5.2979174 c -0.167943,0 -0.303146,-0.14342 -0.303146,-0.32158 0,-0.17816 0.135203,-0.32159 0.303146,-0.32159 z"
         inkscape:transform-center-y="1.1025815" />
      <path
         id="rect2033-3-3-63"
         style="fill:#ffffff;stroke:#000000;stroke-width:0.20411;stroke-miterlimit:0"
         d="M 6.0164474,66.510502 H 68.467627 c 0.162542,0 0.293395,0.14408 0.293395,0.32304 0,0.17896 -0.130853,0.32303 -0.293395,0.32303 H 6.0164474 c -0.162541,0 -0.293395,-0.14407 -0.293395,-0.32303 0,-0.17896 0.130854,-0.32304 0.293395,-0.32304 z" />
      <path
         id="rect2033-40"
         style="fill:#ffffff;stroke:#000000;stroke-width:0.202573;stroke-miterlimit:0"
         d="M 6.7403213,64.206574 H 68.108621 c 0.159722,0 0.288307,0.14441 0.288307,0.3238 0,0.17939 -0.128585,0.32379 -0.288307,0.32379 H 6.7403213 c -0.1597224,0 -0.2883074,-0.1444 -0.2883074,-0.32379 0,-0.17939 0.128585,-0.3238 0.2883074,-0.3238 z" />
      <path
         id="rect2033-4-35"
         style="fill:#ffffff;stroke:#000000;stroke-width:0.193931;stroke-miterlimit:0"
         d="m 13.184797,62.332297 h 55.502998 c 0.144456,0 0.260752,0.146339 0.260752,0.328127 0,0.181788 -0.116296,0.328117 -0.260752,0.328117 H 13.184797 c -0.144457,0 -0.260752,-0.146329 -0.260752,-0.328117 0,-0.181788 0.116295,-0.328127 0.260752,-0.328127 z"
         inkscape:transform-center-x="1.6390146"
         inkscape:transform-center-y="2.4375" />
      <path
         id="rect2033-8-0"
         style="fill:#ffffff;stroke:#000000;stroke-width:0.181251;stroke-miterlimit:0"
         d="m 21.2594,60.410408 h 47.563252 c 0.123792,0 0.223452,0.149164 0.223452,0.334466 0,0.185302 -0.09966,0.334456 -0.223452,0.334456 H 21.2594 c -0.123792,0 -0.223451,-0.149154 -0.223451,-0.334456 0,-0.185302 0.09966,-0.334466 0.223451,-0.334466 z"
         inkscape:transform-center-y="1.1467375" />
      <path
         id="rect2033-3-1"
         style="fill:#ffffff;stroke:#000000;stroke-width:0.161439;stroke-miterlimit:0"
         d="m 31.870516,58.120091 h 36.648453 c 0.09539,0 0.172174,0.153597 0.172174,0.344373 0,0.190777 -0.07679,0.344363 -0.172174,0.344363 H 31.870516 c -0.09539,0 -0.172174,-0.153586 -0.172174,-0.344363 0,-0.190776 0.07679,-0.344373 0.172174,-0.344373 z" />
      <path
         id="rect2033-5-1"
         style="fill:#ffffff;stroke:#000000;stroke-width:0.14504;stroke-miterlimit:0"
         d="m 39.670478,56.310391 h 28.893125 c 0.0752,0 0.135739,0.157243 0.135739,0.352573 0,0.19533 -0.06054,0.352563 -0.135739,0.352563 H 39.670478 c -0.0752,0 -0.13574,-0.157233 -0.13574,-0.352563 0,-0.19533 0.06054,-0.352573 0.13574,-0.352573 z" />
      <path
         id="rect2033-4-0-0"
         style="fill:#ffffff;stroke:#000000;stroke-width:0.127705;stroke-miterlimit:0"
         d="M 47.108506,54.43177 H 68.97017 c 0.0569,0 0.102705,0.161116 0.102705,0.361245 0,0.200128 -0.04581,0.361233 -0.102705,0.361233 H 47.108506 c -0.0569,0 -0.102705,-0.161105 -0.102705,-0.361233 0,-0.200129 0.04581,-0.361245 0.102705,-0.361245 z"
         inkscape:transform-center-x="0.64557931"
         inkscape:transform-center-y="2.683481" />
      <path
         id="rect4621"
         style="stroke:#000000;stroke-width:0.39687505;stroke-miterlimit:0;fill:#ffffff;fill-opacity:1;stroke-dasharray:none"
         d="m 68.777027,49.622311 c 1.313494,0 2.370929,1.05773 2.370929,2.371593 V 165.46555 c 0,1.31386 -1.057435,2.37159 -2.370929,2.37159 -1.313495,0 -2.37093,-1.05773 -2.37093,-2.37159 V 51.993904 c 0,-1.313863 1.057435,-2.371593 2.37093,-2.371593 z" />
      <path
         id="rect4621-9"
         style="stroke:#000000;stroke-width:0.39687505;stroke-miterlimit:0;fill:#ffffff;fill-opacity:1;stroke-dasharray:none"
         d="m 4.0725307,63.275208 h 0.6116834 c 1.1604228,0 2.094626,0.934203 2.094626,2.094625 V 165.58962 c 0,1.16043 -0.9342032,2.09463 -2.094626,2.09463 H 4.0725307 c -1.1604227,0 -2.0946259,-0.9342 -2.0946259,-2.09463 V 65.369833 c 0,-1.160422 0.9342032,-2.094625 2.0946259,-2.094625 z" />
      <path
         id="rect4621-9-0"
         style="stroke:#000000;stroke-width:0.39687919;stroke-miterlimit:0;fill:#ffffff;fill-opacity:1;stroke-dasharray:none"
         transform="matrix(0.20805772,0.97811655,-0.97675186,0.21437303,0,0)"
         d="m 64.192659,-59.172005 h 0.312275 c 0.78549,0 1.417852,0.632362 1.417852,1.417852 V 10.08462 c 0,0.78549 -0.632362,1.417852 -1.417852,1.417852 h -0.312275 c -0.78549,0 -1.417852,-0.632362 -1.417852,-1.417852 v -67.838773 c 0,-0.78549 0.632362,-1.417852 1.417852,-1.417852 z" />
      <path
         id="rect2009"
         style="fill:#ffffff;fill-opacity:1;stroke:#000000;stroke-width:0.399928;stroke-miterlimit:0;stroke-dasharray:none"
         d="M 4.2992406,163.0112 H 68.999026 c 1.179087,0 2.128316,0.93361 2.128316,2.09329 v 0.64481 c 0,1.15968 -0.949229,2.0933 -2.128316,2.0933 H 4.2992406 c -1.1790873,0 -2.1283165,-0.93362 -2.1283165,-2.0933 v -0.64481 c 0,-1.15968 0.9492292,-2.09329 2.1283165,-2.09329 z" />
    </g>
  </g>
</svg>
