<?xml version="1.0" encoding="UTF-8" standalone="no"?>
<!-- Uploaded to: SVG Repo, www.svgrepo.com, Generator: SVG Repo Mixer Tools -->

<svg
   width="620"
   height="620"
   viewBox="0 0 62 62"
   fill="none"
   version="1.1"
   id="svg74"
   sodipodi:docname="head1.svg"
   inkscape:version="1.2.1 (9c6d41e410, 2022-07-14)"
   xmlns:inkscape="http://www.inkscape.org/namespaces/inkscape"
   xmlns:sodipodi="http://sodipodi.sourceforge.net/DTD/sodipodi-0.dtd"
   xmlns="http://www.w3.org/2000/svg"
   xmlns:svg="http://www.w3.org/2000/svg">
  <sodipodi:namedview
     id="namedview76"
     pagecolor="#ffffff"
     bordercolor="#000000"
     borderopacity="0"
     inkscape:showpageshadow="2"
     inkscape:pageopacity="0.0"
     inkscape:pagecheckerboard="0"
     inkscape:deskcolor="#d1d1d1"
     showgrid="false"
     inkscape:zoom="1.0175"
     inkscape:cx="400.4914"
     inkscape:cy="321.86732"
     inkscape:window-width="1920"
     inkscape:window-height="1001"
     inkscape:window-x="-9"
     inkscape:window-y="-9"
     inkscape:window-maximized="1"
     inkscape:current-layer="g1046" />
  <g
     id="g1046"
     transform="translate(-9.2383292,-8.8452088)">
    <path
       d="M 40.0001,70.4762 C 56.8316,70.4762 70.4763,56.8315 70.4763,40 70.4763,23.1685 56.8316,9.5238 40.0001,9.5238 23.1686,9.5238 9.52393,23.1685 9.52393,40 c 0,16.8315 13.64467,30.4762 30.47617,30.4762 z"
       id="path2"
       style="fill:#f2d700;fill-opacity:1" />
    <path
       opacity="0.5"
       d="M 40.0001,70.4762 C 56.8316,70.4762 70.4763,56.8315 70.4763,40 70.4763,23.1685 56.8316,9.5238 40.0001,9.5238 23.1686,9.5238 9.52393,23.1685 9.52393,40 c 0,16.8315 13.64467,30.4762 30.47617,30.4762 z"
       id="path4"
       style="fill:#f2ba00;fill-opacity:1" />
    <path
       d="m 30.0569,41.2951 c 1.62,0 2.9333,-1.987 2.9333,-4.4381 0,-2.4511 -1.3133,-4.4381 -2.9333,-4.4381 -1.6201,0 -2.9334,1.987 -2.9334,4.4381 0,2.4511 1.3133,4.4381 2.9334,4.4381 z"
       id="path6"
       style="fill:#500000;fill-opacity:1" />
    <path
       d="m 30.0569,33.9236 c 1.2571,0 2.3619,1.1048 2.9333,2.7238 -0.0381,-2.4 -1.3333,-4.3238 -2.9333,-4.3238 -1.6,0 -2.8953,1.9238 -2.9334,4.3238 0.5715,-1.619 1.6572,-2.7238 2.9334,-2.7238 z"
       id="path8"
       style="fill:#280000;fill-opacity:1" />
    <path
       d="m 49.9431,41.2951 c 1.62,0 2.9333,-1.987 2.9333,-4.4381 0,-2.4511 -1.3133,-4.4381 -2.9333,-4.4381 -1.62,0 -2.9333,1.987 -2.9333,4.4381 0,2.4511 1.3133,4.4381 2.9333,4.4381 z"
       id="path10"
       style="fill:#500000;fill-opacity:1" />
    <path
       d="m 49.9431,34.0382 c -1.2571,0 -2.3619,1.1048 -2.9333,2.7239 0.0381,-2.4 1.3333,-4.3239 2.9333,-4.3239 1.6,0 2.8953,1.9239 2.9333,4.3239 -0.5714,-1.6191 -1.6571,-2.7239 -2.9333,-2.7239 z"
       id="path12"
       style="fill:#280000;fill-opacity:1" />
    <path
       d="M 52.8386,53.2954 H 27.1625 c -0.781,0 -1.4286,-0.6476 -1.4286,-1.4286 0,-0.7809 0.6476,-1.4286 1.4286,-1.4286 h 25.6761 c 0.781,0 1.4286,0.6477 1.4286,1.4286 0,0.781 -0.6476,1.4286 -1.4286,1.4286 z"
       id="path14"
       style="fill:#3f0000;fill-opacity:1" />
    <path
       d="M 27.0291,51.2001 H 52.991 c 0.5524,0 1.0476,0.3239 1.2762,0.781 0,-0.0381 0,-0.0762 0,-0.1143 0,-0.7809 -0.6476,-1.4286 -1.4286,-1.4286 H 27.1625 c -0.781,0 -1.4286,0.6477 -1.4286,1.4286 0,0.0381 0,0.0762 0,0.1143 0.2476,-0.4762 0.7238,-0.781 1.2952,-0.781 z"
       id="path16"
       style="fill:#210000;fill-opacity:1" />
    <path
       d="m 34.6094,27.2192 c -1.1048,0.0572 -2.1143,0.0381 -4.5524,-0.6857 -3.6,-1.0476 -4.4762,-0.2476 -6.8381,1.9048 -0.1714,0.1524 -0.3619,0.3238 -0.5524,0.4952 -0.3809,0.3429 -0.4381,0.9714 -0.0952,1.4667 0.2095,0.3047 1.0476,0.8 1.7905,0.1714 2.3047,-1.9238 4,-1.7143 6.0381,-1.219 1.619,0.3809 3.2952,0.8 5.0857,-0.0762 0.7238,-0.3429 0.9143,-0.8572 0.7428,-1.4096 -0.2095,-0.6857 -0.8381,-0.7047 -1.619,-0.6476 z"
       id="path18"
       style="fill:#550000;fill-opacity:1" />
    <path
       d="m 45.5239,24.362 c 1.1047,-0.0953 2.0381,-0.381 4.419,-1.3524 2.9524,-1.2 4.9714,-0.5905 7.0286,0.8762 0.1905,0.1333 0.4,0.2667 0.6286,0.419 0.4381,0.2858 0.5714,0.9143 0.3047,1.4286 -0.1524,0.3238 -0.9333,0.9333 -1.7524,0.4381 -2.5714,-1.5619 -4.2095,-1.1048 -6.1523,-0.3238 -1.5429,0.6286 -3.1429,1.2762 -5.0477,0.6667 C 44.1905,26.2667 43.9239,25.8096 44,25.2382 c 0.1143,-0.6857 0.7429,-0.8 1.5239,-0.8762 z"
       id="path20"
       style="fill:#550000;fill-opacity:1" />
  </g>
  <defs
     id="defs3325" />
</svg>
