<?xml version="1.0" encoding="UTF-8" standalone="no"?>
<!-- Uploaded to: SVG Repo, www.svgrepo.com, Generator: SVG Repo Mixer Tools -->

<svg
   width="620"
   height="620"
   viewBox="0 0 62 62"
   fill="none"
   version="1.1"
   id="svg3460"
   sodipodi:docname="head2.svg"
   inkscape:version="1.2.1 (9c6d41e410, 2022-07-14)"
   xmlns:inkscape="http://www.inkscape.org/namespaces/inkscape"
   xmlns:sodipodi="http://sodipodi.sourceforge.net/DTD/sodipodi-0.dtd"
   xmlns="http://www.w3.org/2000/svg"
   xmlns:svg="http://www.w3.org/2000/svg">
  <sodipodi:namedview
     id="namedview3462"
     pagecolor="#ffffff"
     bordercolor="#000000"
     borderopacity="0"
     inkscape:showpageshadow="2"
     inkscape:pageopacity="0.0"
     inkscape:pagecheckerboard="true"
     inkscape:deskcolor="#d1d1d1"
     showgrid="false"
     inkscape:zoom="1.0175"
     inkscape:cx="400.4914"
     inkscape:cy="321.86732"
     inkscape:window-width="1920"
     inkscape:window-height="1001"
     inkscape:window-x="-9"
     inkscape:window-y="-9"
     inkscape:window-maximized="1"
     inkscape:current-layer="g4063" />
  <g
     id="g4063"
     transform="translate(-9.3366093,-9.3366093)">
    <path
       d="m 53.4288,67.8285 c -1.581,0 -3.2953,-0.3238 -5.1239,-1.1048 -0.3809,-0.1714 -0.5714,-0.6095 -0.4,-0.9905 0.1715,-0.3809 0.6096,-0.5714 0.9905,-0.4 5.7905,2.4381 10.3048,-0.1333 12.6095,-3.3524 0.2477,-0.3428 0.7238,-0.419 1.0667,-0.1714 0.3429,0.2476 0.419,0.7238 0.1714,1.0667 -1.9047,2.6476 -5.1619,4.9524 -9.3142,4.9524 z"
       id="path3328"
       style="fill:#aa4623;fill-opacity:1" />
    <path
       d="M 40.0001,70.4762 C 56.8316,70.4762 70.4763,56.8315 70.4763,40 70.4763,23.1685 56.8316,9.5238 40.0001,9.5238 23.1686,9.5238 9.52393,23.1685 9.52393,40 c 0,16.8315 13.64467,30.4762 30.47617,30.4762 z"
       id="path3330"
       style="fill:#ffe02e;fill-opacity:1" />
    <path
       opacity="0.5"
       d="M 40.0001,70.4762 C 56.8316,70.4762 70.4763,56.8315 70.4763,40 70.4763,23.1685 56.8316,9.5238 40.0001,9.5238 23.1686,9.5238 9.52393,23.1685 9.52393,40 c 0,16.8315 13.64467,30.4762 30.47617,30.4762 z"
       id="path3332"
       style="fill:#ffea5f;fill-opacity:1" />
    <path
       opacity="0.5"
       d="m 49.3717,50.057 c 2.4571,0.1524 4.7428,-0.4381 6.6857,-1.5809 0.5143,-0.3048 1.1809,-0.2476 1.619,0.1714 0.1715,0.1714 0.3429,0.2857 0.5524,0.381 0.4191,1.6 1.3143,3.0095 2.2095,4.3809 1.4858,2.3048 2.8,4.3619 2.0191,7.1619 0.6095,-0.6667 1.1809,-1.3524 1.7333,-2.0571 -0.1524,-2.2858 -1.3524,-4.1715 -2.4762,-5.9239 -0.7428,-1.1619 -1.4666,-2.2857 -1.8666,-3.4856 0.2666,-0.0953 0.5143,-0.2477 0.7238,-0.4762 0.7047,-0.7048 0.7809,-1.7905 0.2476,-2.5905 -0.0381,-0.0381 -0.0571,-0.0953 -0.0952,-0.1334 0,0 0,0 0,-0.019 -0.0381,-0.0571 -0.0953,-0.0953 -0.1334,-0.1524 l -0.7619,-0.7429 c 1.4667,-2.1142 2.2857,-4.7238 2.0953,-7.5238 -0.381,-6.019 -5.3715,-10.838 -11.4096,-11.0285 -6.819,-0.2095 -12.4,5.3524 -12.1904,12.1905 0.2095,6.0571 5.0095,11.0476 11.0476,11.4285 z m 0.7619,-21.4666 c 5.3524,0 9.6762,4.3428 9.6762,9.6762 0,5.3333 -4.3429,9.6761 -9.6762,9.6761 -5.3524,0 -9.6762,-4.3428 -9.6762,-9.6761 0,-5.3334 4.3429,-9.6762 9.6762,-9.6762 z"
       id="path3334"
       style="fill:#7a4400;fill-opacity:1" />
    <path
       d="m 30.0569,41.295 c 1.62,0 2.9333,-1.987 2.9333,-4.4381 0,-2.4511 -1.3133,-4.4381 -2.9333,-4.4381 -1.6201,0 -2.9334,1.987 -2.9334,4.4381 0,2.4511 1.3133,4.4381 2.9334,4.4381 z"
       id="path3336"
       style="fill:#7a4400;fill-opacity:1" />
    <path
       d="m 30.0569,33.9236 c 1.2571,0 2.3619,1.1048 2.9333,2.7238 -0.0381,-2.4 -1.3333,-4.3238 -2.9333,-4.3238 -1.6,0 -2.8953,1.9238 -2.9334,4.3238 0.5715,-1.619 1.6572,-2.7238 2.9334,-2.7238 z"
       id="path3338"
       style="fill:#3c2200;fill-opacity:1" />
    <path
       d="m 49.9431,41.295 c 1.62,0 2.9333,-1.987 2.9333,-4.4381 0,-2.4511 -1.3133,-4.4381 -2.9333,-4.4381 -1.62,0 -2.9333,1.987 -2.9333,4.4381 0,2.4511 1.3133,4.4381 2.9333,4.4381 z"
       id="path3340"
       style="fill:#7a4400;fill-opacity:1" />
    <path
       d="m 49.9431,34.0383 c -1.2571,0 -2.3619,1.1047 -2.9333,2.7238 0.0381,-2.4 1.3333,-4.3238 2.9333,-4.3238 1.6,0 2.8953,1.9238 2.9333,4.3238 -0.5714,-1.6191 -1.6761,-2.7238 -2.9333,-2.7238 z"
       id="path3342"
       style="fill:#3c2200;fill-opacity:1" />
    <path
       d="m 34.6094,27.9811 c -1.1048,0.0572 -2.1143,0.0381 -4.5524,-0.6857 -3.6,-1.0476 -4.4762,-0.2476 -6.8381,1.9048 -0.1714,0.1524 -0.3619,0.3238 -0.5524,0.4952 -0.3809,0.3429 -0.4381,0.9714 -0.0952,1.4667 0.2095,0.3047 1.0476,0.8 1.7905,0.1714 2.3047,-1.9238 4,-1.7143 6.0381,-1.2191 1.619,0.381 3.2952,0.8 5.0857,-0.0761 0.7238,-0.3429 0.9143,-0.8572 0.7428,-1.4096 -0.2095,-0.6857 -0.8381,-0.7047 -1.619,-0.6476 z"
       id="path3344"
       style="fill:#3c2200;fill-opacity:1" />
    <path
       d="m 45.5239,24.362 c 1.1047,-0.0953 2.0381,-0.381 4.419,-1.3524 2.9524,-1.2 4.9714,-0.5905 7.0286,0.8762 0.1905,0.1333 0.4,0.2667 0.6286,0.419 0.4381,0.2857 0.5714,0.9143 0.3047,1.4286 -0.1524,0.3238 -0.9333,0.9333 -1.7524,0.4381 -2.5714,-1.5619 -4.2095,-1.1048 -6.1523,-0.3238 -1.5429,0.6286 -3.1429,1.2762 -5.0477,0.6667 C 44.1905,26.2667 43.9239,25.8096 44,25.2382 c 0.1143,-0.6857 0.7429,-0.8 1.5239,-0.8762 z"
       id="path3346"
       style="fill:#3c2200;fill-opacity:1" />
    <path
       d="m 48.8383,59.1237 c -0.1333,0 -0.2476,-0.019 -0.3809,-0.0571 -0.0381,0 -2.9714,-0.8381 -6.5333,-1.3334 -4.5524,-0.6285 -8.0381,-0.4762 -10.0953,0.4762 -0.6666,0.3048 -1.4666,0.0191 -1.7714,-0.6476 -0.3048,-0.6667 -0.0191,-1.4667 0.6476,-1.7714 5.981,-2.781 17.9619,0.5524 18.4572,0.7047 0.7047,0.1905 1.1238,0.9334 0.9142,1.6381 -0.1333,0.5905 -0.6666,0.9715 -1.2381,0.9905 z"
       fill="#643800"
       id="path3348" />
    <path
       d="m 50.1523,57.7332 c -0.0191,-0.5714 -0.4,-1.0666 -0.9715,-1.2381 -0.5143,-0.1523 -12.4762,-3.4666 -18.4571,-0.7047 -0.6286,0.2857 -0.9143,0.9905 -0.7048,1.619 2.7048,-2.019 7.2381,-3.0476 20.1334,0.3238 z"
       id="path3350"
       style="fill:#3c2200;fill-opacity:1" />
    <path
       d="m 62.1147,63.1621 c -0.1333,0 -0.2857,-0.0381 -0.4,-0.1143 -0.3619,-0.2286 -0.4571,-0.7047 -0.2286,-1.0476 2.6858,-4.2095 1.0477,-6.7619 -0.838,-9.7143 -1.2,-1.8667 -2.4381,-3.8095 -2.4381,-6.2286 0,-0.419 0.3428,-0.7619 0.7619,-0.7619 0.419,0 0.7619,0.3429 0.7619,0.7619 0,1.962 1.0666,3.6381 2.2095,5.4096 1.9048,2.9523 4.0571,6.3238 0.8381,11.3524 -0.1714,0.2285 -0.4191,0.3428 -0.6667,0.3428 z"
       id="path3352"
       style="fill:#aa4623;fill-opacity:1" />
    <path
       d="m 49.9427,26.0193 c -6.1334,0 -11.1048,4.9715 -11.1048,11.1048 0,6.1334 4.9714,11.1048 11.1048,11.1048 6.1333,0 11.1047,-4.9714 11.1047,-11.1048 C 61.0665,30.9908 56.076,26.0193 49.9427,26.0193 Z m 0,20.781 c -5.3524,0 -9.6762,-4.3428 -9.6762,-9.6762 0,-5.3524 4.3428,-9.6762 9.6762,-9.6762 5.3333,0 9.6762,4.3429 9.6762,9.6762 0,5.3524 -4.3239,9.6762 -9.6762,9.6762 z"
       id="path3354"
       style="fill:#1a1a1a;fill-opacity:0.234257" />
    <path
       d="m 49.9428,25.3144 c -6.5143,0 -11.8095,5.2952 -11.8095,11.8095 0,6.5143 5.2952,11.8095 11.8095,11.8095 6.5143,0 11.8096,-5.2952 11.8096,-11.8095 0,-6.5143 -5.2762,-11.8095 -11.8096,-11.8095 z m 0,22.3428 c -5.8285,0 -10.5333,-4.7238 -10.5333,-10.5333 0,-5.8095 4.7238,-10.5333 10.5333,-10.5333 5.8096,0 10.5334,4.7238 10.5334,10.5333 0,5.8095 -4.7048,10.5333 -10.5334,10.5333 z"
       id="path3356"
       style="fill:#1e1f21;fill-opacity:0.234257" />
    <path
       d="m 49.9429,46.1145 c 4.9653,0 8.9904,-4.0252 8.9904,-8.9905 0,-4.9653 -4.0251,-8.9905 -8.9904,-8.9905 -4.9653,0 -8.9905,4.0252 -8.9905,8.9905 0,4.9653 4.0252,8.9905 8.9905,8.9905 z"
       id="path3358"
       style="fill:#713c39;fill-opacity:0.234257" />
    <path
       opacity="0.5"
       d="m 52.7428,27.8666 c 5.1239,1.5429 8.0191,6.9333 6.4762,12.0571 -1.5428,5.1238 -6.9333,8.0191 -12.0571,6.4762 -5.1238,-1.5428 -8.0191,-6.9333 -6.4762,-12.0571 1.5429,-5.1238 6.9333,-8.0191 12.0571,-6.4762 z"
       id="path3360"
       style="fill:#946d44;fill-opacity:1" />
    <path
       d="m 60.6475,44.9143 c -0.0381,-0.0381 -0.0571,-0.0952 -0.0952,-0.1333 0,0 0,0 0,-0.0191 -0.0381,-0.0571 -0.0952,-0.0952 -0.1333,-0.1524 l -1.1239,-1.0857 c -0.3809,0.5715 -0.838,1.1048 -1.3333,1.6 -0.4952,0.4953 -1.0476,0.9334 -1.6,1.3334 l 1.1619,1.0476 c 0.8,0.8 2.0953,0.8 2.8953,0 0.6857,-0.7048 0.7619,-1.7905 0.2285,-2.5905 z"
       id="path3362"
       style="fill:#111111;fill-opacity:1" />
    <path
       d="m 58.9526,46.9145 c 0.4734,0 0.8571,-0.3838 0.8571,-0.8572 0,-0.4733 -0.3837,-0.8571 -0.8571,-0.8571 -0.4734,0 -0.8571,0.3838 -0.8571,0.8571 0,0.4734 0.3837,0.8572 0.8571,0.8572 z"
       id="path3364"
       style="fill:#4b0000;fill-opacity:1" />
  </g>
  <defs
     id="defs4188" />
</svg>
