<?xml version="1.0" encoding="UTF-8" standalone="no"?>
<!-- Svg Vector Icons : http://www.onlinewebfonts.com/icon -->

<svg
   version="1.1"
   x="0px"
   y="0px"
   viewBox="0 0 990 425"
   enable-background="new 0 0 1000 1000"
   xml:space="preserve"
   id="svg2943"
   sodipodi:docname="shoeRed.svg"
   inkscape:version="1.2.1 (9c6d41e410, 2022-07-14)"
   width="990"
   height="425"
   xmlns:inkscape="http://www.inkscape.org/namespaces/inkscape"
   xmlns:sodipodi="http://sodipodi.sourceforge.net/DTD/sodipodi-0.dtd"
   xmlns="http://www.w3.org/2000/svg"
   xmlns:svg="http://www.w3.org/2000/svg"><defs
   id="defs2947" /><sodipodi:namedview
   id="namedview2945"
   pagecolor="#ffffff"
   bordercolor="#000000"
   borderopacity="0"
   inkscape:showpageshadow="2"
   inkscape:pageopacity="0"
   inkscape:pagecheckerboard="true"
   inkscape:deskcolor="#d1d1d1"
   showgrid="false"
   inkscape:zoom="0.814"
   inkscape:cx="500.61425"
   inkscape:cy="205.77396"
   inkscape:window-width="1920"
   inkscape:window-height="1001"
   inkscape:window-x="-9"
   inkscape:window-y="-9"
   inkscape:window-maximized="1"
   inkscape:current-layer="svg2943" />
<metadata
   id="metadata2917"> Svg Vector Icons : http://www.onlinewebfonts.com/icon </metadata>

<g
   id="g10828"
   inkscape:label="shoe"
   transform="translate(-6.1425062,-285.01229)"><g
     id="g2941"
     inkscape:label="border"><path
       d="M 350.2,687.1 C 258.7,687 160,689.7 71.7,662.1 60.3,658.5 44.1,652.3 38.8,643.2 c -0.5,-0.9 -1.2,-4.4 -1.1,-3.4 -2.8,-27.2 -7.7,-52.4 0.3,-79.3 -4.6,2.6 -9.1,5.2 -13.7,7.8 0,0 0.1,0 0.1,0 6.1,2.1 11.6,-2.4 13.7,-7.8 15.5,-40.5 64.1,-67.4 104.7,-81.4 51.3,-17.6 103.1,-17.5 156.4,-21.5 25.4,-1.9 52.4,-17.1 75.4,-26.7 74.7,-31.2 148.1,-65.3 221.5,-99.3 11.1,-5.1 22.2,-10.9 33.7,-15.1 41.7,-15.2 43.8,24.4 52.6,53 13.3,43.6 52.6,73.7 96.4,81.5 41.8,7.5 77.6,-12.1 106.3,-41.1 7.8,-7.9 15,-16.7 21.3,-25.9 18.5,-27 32.8,15.6 36.4,28.6 20.7,75.5 37.1,168 15.6,245.1 -7.1,25.5 -20.2,18.5 -44.5,19.1 -48.1,1.2 -96.2,2.4 -144.4,3.5 -113.1,2.7 -226.3,5.1 -339.4,6.1 -26.5,0.5 -53.2,0.7 -79.9,0.7 -14.4,0 -14.4,22.3 0,22.3 111.8,-0.1 223.7,-2.3 335.5,-4.7 50.8,-1.1 101.6,-2.3 152.3,-3.5 37.3,-0.9 76.3,1.7 113.2,-3.3 19.5,-2.6 26.9,-25.7 30.9,-41.8 9.3,-37.5 9.4,-77.9 5.5,-116.1 -4.3,-42 -11.2,-84 -21.1,-125 -7.1,-29.4 -21.7,-70.6 -60.1,-58 -10.4,3.4 -16.5,12.6 -22.6,20.9 -11.6,15.6 -26.4,29.3 -42.7,39.8 -46.2,29.7 -106.2,4.5 -131.3,-40.5 -11.9,-21.4 -9.9,-46.9 -24.2,-67.4 -12.4,-17.7 -33.4,-21.9 -53.4,-17.4 -27.8,6.2 -54.5,23.5 -80.2,35.3 -74.5,34.3 -149,69.9 -225.7,98.9 -37.2,14 -75.2,9.2 -115.2,14.5 -40.6,5.4 -80.6,15.9 -117.2,34.8 -32.7,16.9 -63.8,43.6 -77.2,78.7 4.6,-2.6 9.1,-5.2 13.7,-7.8 0,0 -0.1,0 -0.1,0 -5.8,-2 -12.1,2.3 -13.7,7.8 -8.3,27.6 -9.7,67.2 0.8,95 5.4,14.2 19.1,22.4 32.4,28.1 35.2,15.2 75,19.6 112.7,23.9 62.4,7.1 125,7.9 187.6,7.9 14.4,-0.2 14.4,-22.4 0.1,-22.4 z"
       id="path2919" /><path
       d="m 241.5,613 c -13.5,-21.4 -6.8,-57.2 -4.3,-80.9 2.8,-27 7.8,-53.6 12.8,-80.3 2.6,-14 -18.8,-20 -21.5,-5.9 -5.4,28.6 -10.3,57.2 -13.6,86.2 -3.1,28.1 -8.6,66.7 7.4,92.1 7.6,12.1 26.9,1 19.2,-11.2 z"
       id="path2921" /><path
       d="m 691.9,358.5 c -79,27 -158.1,56.5 -233.2,93.1 -42.3,20.6 -85.6,44.7 -132.3,53.4 -32.1,5.9 -66.3,3 -98.8,3.1 -14.4,0 -14.4,22.3 0,22.3 32.4,0 65.5,1.9 97.7,-2.8 43.2,-6.3 83.3,-27.1 122.2,-45.8 81.3,-39.1 164.9,-72.6 250.3,-101.7 13.6,-4.8 7.8,-26.3 -5.9,-21.6 z"
       id="path2923" /><path
       d="m 815,616.2 c 1.4,-41 44.4,-69.6 75.8,-88.7 24.1,-14.7 49.8,-26.5 75.9,-36.9 13.2,-5.2 7.4,-26.8 -5.9,-21.5 -62.1,24.6 -165.4,68.4 -168.1,147.1 -0.4,14.4 21.9,14.3 22.3,0 z"
       id="path2925" /><path
       d="m 20.7,565.9 c 3.7,10 14,16.7 22.8,21.7 30.6,17.6 67.6,24.8 101.8,30.9 82.8,14.7 167.7,17.7 251.5,18.8 123,1.5 246.2,-3.8 369.1,-8.5 55.4,-2.1 110.9,-4.2 166.1,-8.4 13,-1 29.5,-0.3 42,-5 13.3,-5 7.5,-26.6 -5.9,-21.5 -10.5,4 -26.6,3.5 -41.8,4.6 -62.8,4.6 -125.8,6.7 -188.8,9 -124.9,4.5 -250,9.6 -375,6.8 -77.8,-1.7 -156.8,-5.7 -233.2,-21.5 -25.7,-5.3 -52.7,-11.8 -75.7,-25 -6.6,-3.8 -6.7,-3.7 -11.1,-8.2 -1.6,-1.7 -1.6,-2.5 -0.5,0.3 -4.8,-13.2 -26.3,-7.5 -21.3,6 z"
       id="path2927" /><path
       d="m 624.5,385.7 c -8.7,-20.1 -17.5,-40.2 -26.2,-60.3 -5.7,-13.1 -24.9,-1.8 -19.2,11.2 8.7,20.1 17.5,40.2 26.2,60.3 5.6,13.2 24.8,1.9 19.2,-11.2 z"
       id="path2929" /><path
       d="m 567.3,417.8 c -9.7,-23.2 -19.4,-46.4 -29.2,-69.6 -5.5,-13 -27,-7.3 -21.5,5.9 9.7,23.2 19.4,46.4 29.2,69.6 5.5,13.1 27,7.4 21.5,-5.9 z"
       id="path2931" /><path
       d="m 509.1,438.5 c -10.7,-21.9 -21.4,-43.8 -32.2,-65.7 -6.3,-12.9 -25.5,-1.6 -19.2,11.2 10.7,21.9 21.4,43.8 32.2,65.7 6.3,13 25.5,1.7 19.2,-11.2 z"
       id="path2933" /><path
       d="m 459,463.6 c -12.6,-22 -25.2,-44.1 -37.9,-66.1 -7.1,-12.5 -26.4,-1.2 -19.2,11.2 12.6,22 25.2,44.1 37.9,66.1 7.1,12.5 26.4,1.3 19.2,-11.2 z"
       id="path2935"
       style="fill:#000000;fill-opacity:1" /><path
       d="m 399.1,488.5 c -11,-22.5 -21.9,-45.1 -32.9,-67.6 -6.3,-12.9 -25.5,-1.6 -19.2,11.2 11,22.5 21.9,45.1 32.9,67.6 6.2,12.9 25.4,1.6 19.2,-11.2 z"
       id="path2937" /><path
       d="m 346,511.5 c -9,-23.4 -18,-46.7 -27,-70.1 -5.1,-13.3 -26.6,-7.5 -21.5,5.9 9,23.4 18,46.7 27,70.1 5.2,13.3 26.7,7.6 21.5,-5.9 z"
       id="path2939" /></g><g
     id="g10802"
     inkscape:label="colors"><path
       style="fill:#dd0000;fill-opacity:1;stroke:#ffffff;stroke-width:1.84275;stroke-miterlimit:0"
       d="m 377.76413,614.11235 c -45.83751,-0.82095 -118.04855,-4.11878 -133.58651,-6.10079 -5.11143,-0.65201 -5.24828,-0.79414 -7.37101,-7.65491 -2.71009,-8.75917 -2.9611,-37.81338 -0.48759,-56.43773 l 1.67237,-12.59214 27.8102,-0.0105 c 67.94412,-0.0257 93.23723,-6.34204 167.24509,-41.76556 76.59626,-36.66244 139.32984,-63.34676 208.84521,-88.83429 36.9743,-13.55648 45.75342,-16.38397 46.27261,-14.90301 4.49777,12.82964 28.96185,39.10605 45.56776,48.94349 21.77151,12.89756 43.46821,18.59357 67.10042,17.61579 18.07474,-0.74784 25.84757,-2.72968 42.17773,-10.75409 21.51953,-10.5744 42.67,-28.76075 59.70464,-51.33736 9.36631,-12.41352 13.65323,-15.64953 18.36072,-13.85974 6.52073,2.47918 13.76648,14.0732 19.26529,30.82665 3.34165,10.18118 13.33115,50.46813 14.31702,57.73955 l 0.74954,5.52826 -15.99178,6.52656 c -32.40849,13.22654 -66.23283,31.17364 -87.92177,46.65104 -14.80123,10.56227 -34.2151,29.79661 -42.22455,41.83408 -6.58203,9.89218 -14.89335,28.69362 -15.02153,33.98095 -0.0328,1.35135 -0.47609,3.11201 -0.98516,3.91258 -0.89994,1.41523 -106.28268,5.73222 -218.32426,8.94362 -45.87957,1.31504 -163.24463,2.35524 -197.17444,1.74755 z"
       id="path4224" /><path
       style="fill:#cf4d3c;fill-opacity:1;stroke:#ffffff;stroke-width:1.84275;stroke-miterlimit:0"
       d="m 333.54641,477.21082 c -5.05692,-13.18594 -8.49292,-23.81194 -7.87025,-24.33913 1.7383,-1.47173 25.13263,-10.3348 25.72238,-9.74506 0.64984,0.64984 22.68008,46.33187 22.68008,47.02954 0,0.43232 -29.79747,10.45808 -31.08235,10.45808 -0.26094,0 -4.51338,-10.53154 -9.44986,-23.40343 z"
       id="path7607" /><path
       style="fill:#cf4d3c;fill-opacity:1;stroke:#ffffff;stroke-width:1.84275;stroke-miterlimit:0"
       d="m 384.49804,456.79526 c -6.41215,-13.28114 -11.51788,-24.27577 -11.34606,-24.4325 0.75287,-0.68678 33.28748,-14.04188 33.5182,-13.75886 1.35747,1.66512 25.14197,44.08464 25.12368,44.80792 -0.0218,0.86327 -11.06917,6.39216 -29.17016,14.59885 l -6.46721,2.93212 z"
       id="path7609" /><path
       style="fill:#cf4d3c;fill-opacity:1;stroke:#ffffff;stroke-width:1.84275;stroke-miterlimit:0"
       d="m 241.40049,505.7966 c 0,-2.56616 7.08425,-43.39199 7.62083,-43.9181 0.20044,-0.19652 10.03888,-0.96968 21.8632,-1.71813 11.82433,-0.74845 23.41712,-1.48537 25.76177,-1.6376 l 4.26299,-0.27679 8.96531,23.20972 c 4.93093,12.76534 8.69978,23.47526 8.37523,23.79981 -1.46537,1.46536 -22.08494,2.60275 -48.28668,2.66351 -26.60112,0.0617 -28.56265,-0.0841 -28.56265,-2.12242 z"
       id="path7611" /><path
       style="fill:#cf4d3c;fill-opacity:1;stroke:#ffffff;stroke-width:1.84275;stroke-miterlimit:0"
       d="m 440.88339,430.66927 -12.43357,-21.95828 16.6061,-7.35642 16.60609,-7.35642 10.87661,22.07935 c 5.98214,12.14364 10.87661,22.26245 10.87661,22.48623 0,0.53228 -28.32288,14.15042 -29.32795,14.1014 -0.42368,-0.0207 -6.36543,-9.9188 -13.20389,-21.99586 z"
       id="path7613" /><path
       style="fill:#cf4d3c;fill-opacity:1;stroke:#ffffff;stroke-width:1.84275;stroke-miterlimit:0"
       d="m 494.39138,406.88001 c -9.1533,-18.7033 -10.60787,-22.46755 -9.02429,-23.35377 1.03833,-0.58108 9.54241,-4.54897 18.89795,-8.81753 l 17.01007,-7.76101 9.83114,23.52861 c 5.40713,12.94073 9.29931,23.72219 8.64927,23.95879 -0.65003,0.23661 -8.66765,3.65039 -17.81692,7.58618 l -16.63506,7.15599 z"
       id="path7615" /><path
       style="fill:#cf4d3c;fill-opacity:1;stroke:#ffffff;stroke-width:1.84275;stroke-miterlimit:0"
       d="m 558.09837,394.04753 c -2.43447,-5.91533 -6.90942,-16.64394 -9.94432,-23.84136 l -5.518,-13.08622 18.58538,-8.55045 18.58539,-8.55045 10.1388,23.32312 c 5.57634,12.82771 10.28565,24.14142 10.46514,25.14157 0.23268,1.29655 -4.60991,3.72399 -16.87268,8.45778 -9.45946,3.65162 -18.05725,6.91423 -19.1062,7.25024 -1.4343,0.45943 -3.00471,-2.05586 -6.33351,-10.14423 z"
       id="path7617" /><path
       style="fill:#cf4d3c;fill-opacity:1;stroke:#ffffff;stroke-width:1.84275;stroke-miterlimit:0"
       d="m 621.53454,377.13095 c -0.99245,-2.37528 -5.93968,-13.79765 -10.99383,-25.38305 -5.05415,-11.5854 -9.18936,-21.25596 -9.18936,-21.49014 0,-0.87718 21.83336,-10.52283 30.31489,-13.39266 10.49328,-3.55052 17.64727,-3.74305 24.44032,-0.65771 9.44102,4.28801 14.24223,12.47489 20.64149,35.19727 2.08628,7.40792 2.55387,10.71055 1.56548,11.05706 -0.77514,0.27175 -13.23111,4.6552 -27.67992,9.741 -14.44881,5.0858 -26.50097,9.24691 -26.78259,9.24691 -0.28161,0 -1.32403,-1.94341 -2.31648,-4.31868 z"
       id="path7619" /><path
       style="fill:#4d4d4d;fill-opacity:1;stroke:#ffffff;stroke-width:1.84275;stroke-miterlimit:0"
       d="M 187.34644,601.96806 C 144.85125,596.02805 106.87627,588.03645 84.476763,580.3198 61.346914,572.35153 41.154791,560.87676 41.154791,555.7008 c 0,-3.59219 10.828714,-18.16348 21.420646,-28.82396 23.576181,-23.72876 62.763773,-43.77263 106.576513,-54.51229 15.00369,-3.67779 53.27999,-9.55586 54.47081,-8.36505 0.37848,0.37848 -0.42454,7.25136 -1.78448,15.27307 -3.65386,21.55243 -8.33162,57.66811 -10.00408,77.23849 -1.36491,15.97173 -1.03938,32.91211 0.84397,43.91892 0.95236,5.56584 2.71671,5.45871 -25.33173,1.53808 z"
       id="path7759" /><path
       style="fill:#4d4d4d;fill-opacity:1;stroke:#ffffff;stroke-width:1.84275;stroke-miterlimit:0"
       d="m 818.18642,601.04423 c 3.64698,-12.8512 16.67214,-30.93508 31.49958,-43.73341 11.29255,-9.74719 38.7877,-28.02725 58.17641,-38.6784 18.54976,-10.19027 50.98179,-24.66908 52.25652,-23.32915 2.34619,2.46618 6.35863,42.62451 6.9922,69.98114 l 0.65842,28.42937 -3.5408,0.70552 c -7.99477,1.59299 -13.4487,2.09934 -41.62433,3.86439 -32.34348,2.02614 -96.25382,5.48752 -101.74126,5.5103 -3.00514,0.0125 -3.35781,-0.34983 -2.67674,-2.74976 z"
       id="path7761" /><path
       style="fill:#ffffff;fill-opacity:1;stroke:#ffffff;stroke-width:1.84275;stroke-miterlimit:0"
       d="m 219.08182,684.80249 c -81.6691,-4.21861 -159.632815,-21.15157 -176.123543,-38.25233 -3.767637,-3.90701 -4.063637,-4.90945 -5.739674,-19.438 -2.52104,-21.85338 -3.48163,-39.63435 -2.239124,-41.44723 0.811756,-1.1844 3.917749,-0.0586 12.935274,4.6887 6.526854,3.43606 15.333031,7.61572 19.56928,9.28815 35.855857,14.15552 111.947977,27.27077 191.363207,32.9834 89.58674,6.4443 217.93314,7.08172 370.39312,1.83952 166.84405,-5.73678 301.96954,-12.01141 330.32652,-15.3389 l 6.0022,-0.70432 -0.83958,6.51408 c -1.55179,12.04002 -7.07059,34.72204 -9.77909,40.19167 -5.30064,10.7043 -4.10925,10.43421 -50.30711,11.40453 -22.41756,0.47084 -76.14004,1.71021 -119.38328,2.75414 -212.07988,5.11979 -331.44964,6.86782 -453.31696,6.63831 -52.02703,-0.098 -102.81458,-0.60276 -112.86124,-1.12172 z"
       id="path10036" /></g></g></svg>
